<?xml version="1.0" encoding="utf-8" standalone="no"?>
<!DOCTYPE svg PUBLIC "-//W3C//DTD SVG 1.1//EN"
  "http://www.w3.org/Graphics/SVG/1.1/DTD/svg11.dtd">
<svg xmlns:xlink="http://www.w3.org/1999/xlink" width="460.8pt" height="345.6pt" viewBox="0 0 460.8 345.6" xmlns="http://www.w3.org/2000/svg" version="1.1">
 <metadata>
  <rdf:RDF xmlns:dc="http://purl.org/dc/elements/1.1/" xmlns:cc="http://creativecommons.org/ns#" xmlns:rdf="http://www.w3.org/1999/02/22-rdf-syntax-ns#">
   <cc:Work>
    <dc:type rdf:resource="http://purl.org/dc/dcmitype/StillImage"/>
    <dc:date>2023-04-05T21:32:12.800919</dc:date>
    <dc:format>image/svg+xml</dc:format>
    <dc:creator>
     <cc:Agent>
      <dc:title>Matplotlib v3.7.1, https://matplotlib.org/</dc:title>
     </cc:Agent>
    </dc:creator>
   </cc:Work>
  </rdf:RDF>
 </metadata>
 <defs>
  <style type="text/css">*{stroke-linejoin: round; stroke-linecap: butt}</style>
 </defs>
 <g id="figure_1">
  <g id="patch_1">
   <path d="M 0 345.6 
L 460.8 345.6 
L 460.8 0 
L 0 0 
z
" style="fill: #ffffff"/>
  </g>
  <g id="axes_1">
   <g id="patch_2">
    <path d="M 57.6 307.584 
L 414.72 307.584 
L 414.72 41.472 
L 57.6 41.472 
z
" style="fill: #ffffff"/>
   </g>
   <g id="matplotlib.axis_1">
    <g id="xtick_1">
     <g id="line2d_1">
      <defs>
       <path id="md60f60378e" d="M 0 0 
L 0 3.5 
" style="stroke: #000000; stroke-width: 0.8"/>
      </defs>
      <g>
       <use xlink:href="#md60f60378e" x="73.832727" y="307.584" style="stroke: #000000; stroke-width: 0.8"/>
      </g>
     </g>
     <g id="text_1">
      <!-- 0 -->
      <g transform="translate(70.651477 322.182437) scale(0.1 -0.1)">
       <defs>
        <path id="DejaVuSans-30" d="M 2034 4250 
Q 1547 4250 1301 3770 
Q 1056 3291 1056 2328 
Q 1056 1369 1301 889 
Q 1547 409 2034 409 
Q 2525 409 2770 889 
Q 3016 1369 3016 2328 
Q 3016 3291 2770 3770 
Q 2525 4250 2034 4250 
z
M 2034 4750 
Q 2819 4750 3233 4129 
Q 3647 3509 3647 2328 
Q 3647 1150 3233 529 
Q 2819 -91 2034 -91 
Q 1250 -91 836 529 
Q 422 1150 422 2328 
Q 422 3509 836 4129 
Q 1250 4750 2034 4750 
z
" transform="scale(0.015625)"/>
       </defs>
       <use xlink:href="#DejaVuSans-30"/>
      </g>
     </g>
    </g>
    <g id="xtick_2">
     <g id="line2d_2">
      <g>
       <use xlink:href="#md60f60378e" x="132.860826" y="307.584" style="stroke: #000000; stroke-width: 0.8"/>
      </g>
     </g>
     <g id="text_2">
      <!-- 50 -->
      <g transform="translate(126.498326 322.182437) scale(0.1 -0.1)">
       <defs>
        <path id="DejaVuSans-35" d="M 691 4666 
L 3169 4666 
L 3169 4134 
L 1269 4134 
L 1269 2991 
Q 1406 3038 1543 3061 
Q 1681 3084 1819 3084 
Q 2600 3084 3056 2656 
Q 3513 2228 3513 1497 
Q 3513 744 3044 326 
Q 2575 -91 1722 -91 
Q 1428 -91 1123 -41 
Q 819 9 494 109 
L 494 744 
Q 775 591 1075 516 
Q 1375 441 1709 441 
Q 2250 441 2565 725 
Q 2881 1009 2881 1497 
Q 2881 1984 2565 2268 
Q 2250 2553 1709 2553 
Q 1456 2553 1204 2497 
Q 953 2441 691 2322 
L 691 4666 
z
" transform="scale(0.015625)"/>
       </defs>
       <use xlink:href="#DejaVuSans-35"/>
       <use xlink:href="#DejaVuSans-30" x="63.623047"/>
      </g>
     </g>
    </g>
    <g id="xtick_3">
     <g id="line2d_3">
      <g>
       <use xlink:href="#md60f60378e" x="191.888926" y="307.584" style="stroke: #000000; stroke-width: 0.8"/>
      </g>
     </g>
     <g id="text_3">
      <!-- 100 -->
      <g transform="translate(182.345176 322.182437) scale(0.1 -0.1)">
       <defs>
        <path id="DejaVuSans-31" d="M 794 531 
L 1825 531 
L 1825 4091 
L 703 3866 
L 703 4441 
L 1819 4666 
L 2450 4666 
L 2450 531 
L 3481 531 
L 3481 0 
L 794 0 
L 794 531 
z
" transform="scale(0.015625)"/>
       </defs>
       <use xlink:href="#DejaVuSans-31"/>
       <use xlink:href="#DejaVuSans-30" x="63.623047"/>
       <use xlink:href="#DejaVuSans-30" x="127.246094"/>
      </g>
     </g>
    </g>
    <g id="xtick_4">
     <g id="line2d_4">
      <g>
       <use xlink:href="#md60f60378e" x="250.917025" y="307.584" style="stroke: #000000; stroke-width: 0.8"/>
      </g>
     </g>
     <g id="text_4">
      <!-- 150 -->
      <g transform="translate(241.373275 322.182437) scale(0.1 -0.1)">
       <use xlink:href="#DejaVuSans-31"/>
       <use xlink:href="#DejaVuSans-35" x="63.623047"/>
       <use xlink:href="#DejaVuSans-30" x="127.246094"/>
      </g>
     </g>
    </g>
    <g id="xtick_5">
     <g id="line2d_5">
      <g>
       <use xlink:href="#md60f60378e" x="309.945124" y="307.584" style="stroke: #000000; stroke-width: 0.8"/>
      </g>
     </g>
     <g id="text_5">
      <!-- 200 -->
      <g transform="translate(300.401374 322.182437) scale(0.1 -0.1)">
       <defs>
        <path id="DejaVuSans-32" d="M 1228 531 
L 3431 531 
L 3431 0 
L 469 0 
L 469 531 
Q 828 903 1448 1529 
Q 2069 2156 2228 2338 
Q 2531 2678 2651 2914 
Q 2772 3150 2772 3378 
Q 2772 3750 2511 3984 
Q 2250 4219 1831 4219 
Q 1534 4219 1204 4116 
Q 875 4013 500 3803 
L 500 4441 
Q 881 4594 1212 4672 
Q 1544 4750 1819 4750 
Q 2544 4750 2975 4387 
Q 3406 4025 3406 3419 
Q 3406 3131 3298 2873 
Q 3191 2616 2906 2266 
Q 2828 2175 2409 1742 
Q 1991 1309 1228 531 
z
" transform="scale(0.015625)"/>
       </defs>
       <use xlink:href="#DejaVuSans-32"/>
       <use xlink:href="#DejaVuSans-30" x="63.623047"/>
       <use xlink:href="#DejaVuSans-30" x="127.246094"/>
      </g>
     </g>
    </g>
    <g id="xtick_6">
     <g id="line2d_6">
      <g>
       <use xlink:href="#md60f60378e" x="368.973223" y="307.584" style="stroke: #000000; stroke-width: 0.8"/>
      </g>
     </g>
     <g id="text_6">
      <!-- 250 -->
      <g transform="translate(359.429473 322.182437) scale(0.1 -0.1)">
       <use xlink:href="#DejaVuSans-32"/>
       <use xlink:href="#DejaVuSans-35" x="63.623047"/>
       <use xlink:href="#DejaVuSans-30" x="127.246094"/>
      </g>
     </g>
    </g>
    <g id="text_7">
     <!-- dtw_time [kyrs B.P.] -->
     <g transform="translate(186.885 335.860562) scale(0.1 -0.1)">
      <defs>
       <path id="DejaVuSans-64" d="M 2906 2969 
L 2906 4863 
L 3481 4863 
L 3481 0 
L 2906 0 
L 2906 525 
Q 2725 213 2448 61 
Q 2172 -91 1784 -91 
Q 1150 -91 751 415 
Q 353 922 353 1747 
Q 353 2572 751 3078 
Q 1150 3584 1784 3584 
Q 2172 3584 2448 3432 
Q 2725 3281 2906 2969 
z
M 947 1747 
Q 947 1113 1208 752 
Q 1469 391 1925 391 
Q 2381 391 2643 752 
Q 2906 1113 2906 1747 
Q 2906 2381 2643 2742 
Q 2381 3103 1925 3103 
Q 1469 3103 1208 2742 
Q 947 2381 947 1747 
z
" transform="scale(0.015625)"/>
       <path id="DejaVuSans-74" d="M 1172 4494 
L 1172 3500 
L 2356 3500 
L 2356 3053 
L 1172 3053 
L 1172 1153 
Q 1172 725 1289 603 
Q 1406 481 1766 481 
L 2356 481 
L 2356 0 
L 1766 0 
Q 1100 0 847 248 
Q 594 497 594 1153 
L 594 3053 
L 172 3053 
L 172 3500 
L 594 3500 
L 594 4494 
L 1172 4494 
z
" transform="scale(0.015625)"/>
       <path id="DejaVuSans-77" d="M 269 3500 
L 844 3500 
L 1563 769 
L 2278 3500 
L 2956 3500 
L 3675 769 
L 4391 3500 
L 4966 3500 
L 4050 0 
L 3372 0 
L 2619 2869 
L 1863 0 
L 1184 0 
L 269 3500 
z
" transform="scale(0.015625)"/>
       <path id="DejaVuSans-5f" d="M 3263 -1063 
L 3263 -1509 
L -63 -1509 
L -63 -1063 
L 3263 -1063 
z
" transform="scale(0.015625)"/>
       <path id="DejaVuSans-69" d="M 603 3500 
L 1178 3500 
L 1178 0 
L 603 0 
L 603 3500 
z
M 603 4863 
L 1178 4863 
L 1178 4134 
L 603 4134 
L 603 4863 
z
" transform="scale(0.015625)"/>
       <path id="DejaVuSans-6d" d="M 3328 2828 
Q 3544 3216 3844 3400 
Q 4144 3584 4550 3584 
Q 5097 3584 5394 3201 
Q 5691 2819 5691 2113 
L 5691 0 
L 5113 0 
L 5113 2094 
Q 5113 2597 4934 2840 
Q 4756 3084 4391 3084 
Q 3944 3084 3684 2787 
Q 3425 2491 3425 1978 
L 3425 0 
L 2847 0 
L 2847 2094 
Q 2847 2600 2669 2842 
Q 2491 3084 2119 3084 
Q 1678 3084 1418 2786 
Q 1159 2488 1159 1978 
L 1159 0 
L 581 0 
L 581 3500 
L 1159 3500 
L 1159 2956 
Q 1356 3278 1631 3431 
Q 1906 3584 2284 3584 
Q 2666 3584 2933 3390 
Q 3200 3197 3328 2828 
z
" transform="scale(0.015625)"/>
       <path id="DejaVuSans-65" d="M 3597 1894 
L 3597 1613 
L 953 1613 
Q 991 1019 1311 708 
Q 1631 397 2203 397 
Q 2534 397 2845 478 
Q 3156 559 3463 722 
L 3463 178 
Q 3153 47 2828 -22 
Q 2503 -91 2169 -91 
Q 1331 -91 842 396 
Q 353 884 353 1716 
Q 353 2575 817 3079 
Q 1281 3584 2069 3584 
Q 2775 3584 3186 3129 
Q 3597 2675 3597 1894 
z
M 3022 2063 
Q 3016 2534 2758 2815 
Q 2500 3097 2075 3097 
Q 1594 3097 1305 2825 
Q 1016 2553 972 2059 
L 3022 2063 
z
" transform="scale(0.015625)"/>
       <path id="DejaVuSans-20" transform="scale(0.015625)"/>
       <path id="DejaVuSans-5b" d="M 550 4863 
L 1875 4863 
L 1875 4416 
L 1125 4416 
L 1125 -397 
L 1875 -397 
L 1875 -844 
L 550 -844 
L 550 4863 
z
" transform="scale(0.015625)"/>
       <path id="DejaVuSans-6b" d="M 581 4863 
L 1159 4863 
L 1159 1991 
L 2875 3500 
L 3609 3500 
L 1753 1863 
L 3688 0 
L 2938 0 
L 1159 1709 
L 1159 0 
L 581 0 
L 581 4863 
z
" transform="scale(0.015625)"/>
       <path id="DejaVuSans-79" d="M 2059 -325 
Q 1816 -950 1584 -1140 
Q 1353 -1331 966 -1331 
L 506 -1331 
L 506 -850 
L 844 -850 
Q 1081 -850 1212 -737 
Q 1344 -625 1503 -206 
L 1606 56 
L 191 3500 
L 800 3500 
L 1894 763 
L 2988 3500 
L 3597 3500 
L 2059 -325 
z
" transform="scale(0.015625)"/>
       <path id="DejaVuSans-72" d="M 2631 2963 
Q 2534 3019 2420 3045 
Q 2306 3072 2169 3072 
Q 1681 3072 1420 2755 
Q 1159 2438 1159 1844 
L 1159 0 
L 581 0 
L 581 3500 
L 1159 3500 
L 1159 2956 
Q 1341 3275 1631 3429 
Q 1922 3584 2338 3584 
Q 2397 3584 2469 3576 
Q 2541 3569 2628 3553 
L 2631 2963 
z
" transform="scale(0.015625)"/>
       <path id="DejaVuSans-73" d="M 2834 3397 
L 2834 2853 
Q 2591 2978 2328 3040 
Q 2066 3103 1784 3103 
Q 1356 3103 1142 2972 
Q 928 2841 928 2578 
Q 928 2378 1081 2264 
Q 1234 2150 1697 2047 
L 1894 2003 
Q 2506 1872 2764 1633 
Q 3022 1394 3022 966 
Q 3022 478 2636 193 
Q 2250 -91 1575 -91 
Q 1294 -91 989 -36 
Q 684 19 347 128 
L 347 722 
Q 666 556 975 473 
Q 1284 391 1588 391 
Q 1994 391 2212 530 
Q 2431 669 2431 922 
Q 2431 1156 2273 1281 
Q 2116 1406 1581 1522 
L 1381 1569 
Q 847 1681 609 1914 
Q 372 2147 372 2553 
Q 372 3047 722 3315 
Q 1072 3584 1716 3584 
Q 2034 3584 2315 3537 
Q 2597 3491 2834 3397 
z
" transform="scale(0.015625)"/>
       <path id="DejaVuSans-42" d="M 1259 2228 
L 1259 519 
L 2272 519 
Q 2781 519 3026 730 
Q 3272 941 3272 1375 
Q 3272 1813 3026 2020 
Q 2781 2228 2272 2228 
L 1259 2228 
z
M 1259 4147 
L 1259 2741 
L 2194 2741 
Q 2656 2741 2882 2914 
Q 3109 3088 3109 3444 
Q 3109 3797 2882 3972 
Q 2656 4147 2194 4147 
L 1259 4147 
z
M 628 4666 
L 2241 4666 
Q 2963 4666 3353 4366 
Q 3744 4066 3744 3513 
Q 3744 3084 3544 2831 
Q 3344 2578 2956 2516 
Q 3422 2416 3680 2098 
Q 3938 1781 3938 1306 
Q 3938 681 3513 340 
Q 3088 0 2303 0 
L 628 0 
L 628 4666 
z
" transform="scale(0.015625)"/>
       <path id="DejaVuSans-2e" d="M 684 794 
L 1344 794 
L 1344 0 
L 684 0 
L 684 794 
z
" transform="scale(0.015625)"/>
       <path id="DejaVuSans-50" d="M 1259 4147 
L 1259 2394 
L 2053 2394 
Q 2494 2394 2734 2622 
Q 2975 2850 2975 3272 
Q 2975 3691 2734 3919 
Q 2494 4147 2053 4147 
L 1259 4147 
z
M 628 4666 
L 2053 4666 
Q 2838 4666 3239 4311 
Q 3641 3956 3641 3272 
Q 3641 2581 3239 2228 
Q 2838 1875 2053 1875 
L 1259 1875 
L 1259 0 
L 628 0 
L 628 4666 
z
" transform="scale(0.015625)"/>
       <path id="DejaVuSans-5d" d="M 1947 4863 
L 1947 -844 
L 622 -844 
L 622 -397 
L 1369 -397 
L 1369 4416 
L 622 4416 
L 622 4863 
L 1947 4863 
z
" transform="scale(0.015625)"/>
      </defs>
      <use xlink:href="#DejaVuSans-64"/>
      <use xlink:href="#DejaVuSans-74" x="63.476562"/>
      <use xlink:href="#DejaVuSans-77" x="102.685547"/>
      <use xlink:href="#DejaVuSans-5f" x="184.472656"/>
      <use xlink:href="#DejaVuSans-74" x="234.472656"/>
      <use xlink:href="#DejaVuSans-69" x="273.681641"/>
      <use xlink:href="#DejaVuSans-6d" x="301.464844"/>
      <use xlink:href="#DejaVuSans-65" x="398.876953"/>
      <use xlink:href="#DejaVuSans-20" x="460.400391"/>
      <use xlink:href="#DejaVuSans-5b" x="492.1875"/>
      <use xlink:href="#DejaVuSans-6b" x="531.201172"/>
      <use xlink:href="#DejaVuSans-79" x="585.486328"/>
      <use xlink:href="#DejaVuSans-72" x="644.666016"/>
      <use xlink:href="#DejaVuSans-73" x="685.779297"/>
      <use xlink:href="#DejaVuSans-20" x="737.878906"/>
      <use xlink:href="#DejaVuSans-42" x="769.666016"/>
      <use xlink:href="#DejaVuSans-2e" x="838.269531"/>
      <use xlink:href="#DejaVuSans-50" x="870.056641"/>
      <use xlink:href="#DejaVuSans-2e" x="914.734375"/>
      <use xlink:href="#DejaVuSans-5d" x="946.521484"/>
     </g>
    </g>
   </g>
   <g id="matplotlib.axis_2">
    <g id="ytick_1">
     <g id="line2d_7">
      <defs>
       <path id="m0bcf18f2c9" d="M 0 0 
L -3.5 0 
" style="stroke: #000000; stroke-width: 0.8"/>
      </defs>
      <g>
       <use xlink:href="#m0bcf18f2c9" x="57.6" y="54.884034" style="stroke: #000000; stroke-width: 0.8"/>
      </g>
     </g>
     <g id="text_8">
      <!-- −2.0 -->
      <g transform="translate(26.317187 58.683253) scale(0.1 -0.1)">
       <defs>
        <path id="DejaVuSans-2212" d="M 678 2272 
L 4684 2272 
L 4684 1741 
L 678 1741 
L 678 2272 
z
" transform="scale(0.015625)"/>
       </defs>
       <use xlink:href="#DejaVuSans-2212"/>
       <use xlink:href="#DejaVuSans-32" x="83.789062"/>
       <use xlink:href="#DejaVuSans-2e" x="147.412109"/>
       <use xlink:href="#DejaVuSans-30" x="179.199219"/>
      </g>
     </g>
    </g>
    <g id="ytick_2">
     <g id="line2d_8">
      <g>
       <use xlink:href="#m0bcf18f2c9" x="57.6" y="84.8099" style="stroke: #000000; stroke-width: 0.8"/>
      </g>
     </g>
     <g id="text_9">
      <!-- −1.5 -->
      <g transform="translate(26.317187 88.609119) scale(0.1 -0.1)">
       <use xlink:href="#DejaVuSans-2212"/>
       <use xlink:href="#DejaVuSans-31" x="83.789062"/>
       <use xlink:href="#DejaVuSans-2e" x="147.412109"/>
       <use xlink:href="#DejaVuSans-35" x="179.199219"/>
      </g>
     </g>
    </g>
    <g id="ytick_3">
     <g id="line2d_9">
      <g>
       <use xlink:href="#m0bcf18f2c9" x="57.6" y="114.735767" style="stroke: #000000; stroke-width: 0.8"/>
      </g>
     </g>
     <g id="text_10">
      <!-- −1.0 -->
      <g transform="translate(26.317187 118.534986) scale(0.1 -0.1)">
       <use xlink:href="#DejaVuSans-2212"/>
       <use xlink:href="#DejaVuSans-31" x="83.789062"/>
       <use xlink:href="#DejaVuSans-2e" x="147.412109"/>
       <use xlink:href="#DejaVuSans-30" x="179.199219"/>
      </g>
     </g>
    </g>
    <g id="ytick_4">
     <g id="line2d_10">
      <g>
       <use xlink:href="#m0bcf18f2c9" x="57.6" y="144.661633" style="stroke: #000000; stroke-width: 0.8"/>
      </g>
     </g>
     <g id="text_11">
      <!-- −0.5 -->
      <g transform="translate(26.317187 148.460852) scale(0.1 -0.1)">
       <use xlink:href="#DejaVuSans-2212"/>
       <use xlink:href="#DejaVuSans-30" x="83.789062"/>
       <use xlink:href="#DejaVuSans-2e" x="147.412109"/>
       <use xlink:href="#DejaVuSans-35" x="179.199219"/>
      </g>
     </g>
    </g>
    <g id="ytick_5">
     <g id="line2d_11">
      <g>
       <use xlink:href="#m0bcf18f2c9" x="57.6" y="174.5875" style="stroke: #000000; stroke-width: 0.8"/>
      </g>
     </g>
     <g id="text_12">
      <!-- 0.0 -->
      <g transform="translate(34.696875 178.386718) scale(0.1 -0.1)">
       <use xlink:href="#DejaVuSans-30"/>
       <use xlink:href="#DejaVuSans-2e" x="63.623047"/>
       <use xlink:href="#DejaVuSans-30" x="95.410156"/>
      </g>
     </g>
    </g>
    <g id="ytick_6">
     <g id="line2d_12">
      <g>
       <use xlink:href="#m0bcf18f2c9" x="57.6" y="204.513366" style="stroke: #000000; stroke-width: 0.8"/>
      </g>
     </g>
     <g id="text_13">
      <!-- 0.5 -->
      <g transform="translate(34.696875 208.312585) scale(0.1 -0.1)">
       <use xlink:href="#DejaVuSans-30"/>
       <use xlink:href="#DejaVuSans-2e" x="63.623047"/>
       <use xlink:href="#DejaVuSans-35" x="95.410156"/>
      </g>
     </g>
    </g>
    <g id="ytick_7">
     <g id="line2d_13">
      <g>
       <use xlink:href="#m0bcf18f2c9" x="57.6" y="234.439232" style="stroke: #000000; stroke-width: 0.8"/>
      </g>
     </g>
     <g id="text_14">
      <!-- 1.0 -->
      <g transform="translate(34.696875 238.238451) scale(0.1 -0.1)">
       <use xlink:href="#DejaVuSans-31"/>
       <use xlink:href="#DejaVuSans-2e" x="63.623047"/>
       <use xlink:href="#DejaVuSans-30" x="95.410156"/>
      </g>
     </g>
    </g>
    <g id="ytick_8">
     <g id="line2d_14">
      <g>
       <use xlink:href="#m0bcf18f2c9" x="57.6" y="264.365099" style="stroke: #000000; stroke-width: 0.8"/>
      </g>
     </g>
     <g id="text_15">
      <!-- 1.5 -->
      <g transform="translate(34.696875 268.164318) scale(0.1 -0.1)">
       <use xlink:href="#DejaVuSans-31"/>
       <use xlink:href="#DejaVuSans-2e" x="63.623047"/>
       <use xlink:href="#DejaVuSans-35" x="95.410156"/>
      </g>
     </g>
    </g>
    <g id="ytick_9">
     <g id="line2d_15">
      <g>
       <use xlink:href="#m0bcf18f2c9" x="57.6" y="294.290965" style="stroke: #000000; stroke-width: 0.8"/>
      </g>
     </g>
     <g id="text_16">
      <!-- 2.0 -->
      <g transform="translate(34.696875 298.090184) scale(0.1 -0.1)">
       <use xlink:href="#DejaVuSans-32"/>
       <use xlink:href="#DejaVuSans-2e" x="63.623047"/>
       <use xlink:href="#DejaVuSans-30" x="95.410156"/>
      </g>
     </g>
    </g>
    <g id="text_17">
     <!-- d18O_bulk -->
     <g transform="translate(19.959375 201.128) rotate(-90) scale(0.1 -0.1)">
      <defs>
       <path id="DejaVuSans-38" d="M 2034 2216 
Q 1584 2216 1326 1975 
Q 1069 1734 1069 1313 
Q 1069 891 1326 650 
Q 1584 409 2034 409 
Q 2484 409 2743 651 
Q 3003 894 3003 1313 
Q 3003 1734 2745 1975 
Q 2488 2216 2034 2216 
z
M 1403 2484 
Q 997 2584 770 2862 
Q 544 3141 544 3541 
Q 544 4100 942 4425 
Q 1341 4750 2034 4750 
Q 2731 4750 3128 4425 
Q 3525 4100 3525 3541 
Q 3525 3141 3298 2862 
Q 3072 2584 2669 2484 
Q 3125 2378 3379 2068 
Q 3634 1759 3634 1313 
Q 3634 634 3220 271 
Q 2806 -91 2034 -91 
Q 1263 -91 848 271 
Q 434 634 434 1313 
Q 434 1759 690 2068 
Q 947 2378 1403 2484 
z
M 1172 3481 
Q 1172 3119 1398 2916 
Q 1625 2713 2034 2713 
Q 2441 2713 2670 2916 
Q 2900 3119 2900 3481 
Q 2900 3844 2670 4047 
Q 2441 4250 2034 4250 
Q 1625 4250 1398 4047 
Q 1172 3844 1172 3481 
z
" transform="scale(0.015625)"/>
       <path id="DejaVuSans-4f" d="M 2522 4238 
Q 1834 4238 1429 3725 
Q 1025 3213 1025 2328 
Q 1025 1447 1429 934 
Q 1834 422 2522 422 
Q 3209 422 3611 934 
Q 4013 1447 4013 2328 
Q 4013 3213 3611 3725 
Q 3209 4238 2522 4238 
z
M 2522 4750 
Q 3503 4750 4090 4092 
Q 4678 3434 4678 2328 
Q 4678 1225 4090 567 
Q 3503 -91 2522 -91 
Q 1538 -91 948 565 
Q 359 1222 359 2328 
Q 359 3434 948 4092 
Q 1538 4750 2522 4750 
z
" transform="scale(0.015625)"/>
       <path id="DejaVuSans-62" d="M 3116 1747 
Q 3116 2381 2855 2742 
Q 2594 3103 2138 3103 
Q 1681 3103 1420 2742 
Q 1159 2381 1159 1747 
Q 1159 1113 1420 752 
Q 1681 391 2138 391 
Q 2594 391 2855 752 
Q 3116 1113 3116 1747 
z
M 1159 2969 
Q 1341 3281 1617 3432 
Q 1894 3584 2278 3584 
Q 2916 3584 3314 3078 
Q 3713 2572 3713 1747 
Q 3713 922 3314 415 
Q 2916 -91 2278 -91 
Q 1894 -91 1617 61 
Q 1341 213 1159 525 
L 1159 0 
L 581 0 
L 581 4863 
L 1159 4863 
L 1159 2969 
z
" transform="scale(0.015625)"/>
       <path id="DejaVuSans-75" d="M 544 1381 
L 544 3500 
L 1119 3500 
L 1119 1403 
Q 1119 906 1312 657 
Q 1506 409 1894 409 
Q 2359 409 2629 706 
Q 2900 1003 2900 1516 
L 2900 3500 
L 3475 3500 
L 3475 0 
L 2900 0 
L 2900 538 
Q 2691 219 2414 64 
Q 2138 -91 1772 -91 
Q 1169 -91 856 284 
Q 544 659 544 1381 
z
M 1991 3584 
L 1991 3584 
z
" transform="scale(0.015625)"/>
       <path id="DejaVuSans-6c" d="M 603 4863 
L 1178 4863 
L 1178 0 
L 603 0 
L 603 4863 
z
" transform="scale(0.015625)"/>
      </defs>
      <use xlink:href="#DejaVuSans-64"/>
      <use xlink:href="#DejaVuSans-31" x="63.476562"/>
      <use xlink:href="#DejaVuSans-38" x="127.099609"/>
      <use xlink:href="#DejaVuSans-4f" x="190.722656"/>
      <use xlink:href="#DejaVuSans-5f" x="269.433594"/>
      <use xlink:href="#DejaVuSans-62" x="319.433594"/>
      <use xlink:href="#DejaVuSans-75" x="382.910156"/>
      <use xlink:href="#DejaVuSans-6c" x="446.289062"/>
      <use xlink:href="#DejaVuSans-6b" x="474.072266"/>
     </g>
    </g>
   </g>
   <g id="line2d_16">
    <path d="M 73.832727 113.090898 
L 75.013289 127.418128 
L 76.193851 72.816477 
L 77.374413 66.483659 
L 78.554975 70.679885 
L 79.735537 62.412523 
L 84.457785 66.679727 
L 85.638347 83.788747 
L 86.818909 80.657532 
L 87.999471 68.722635 
L 87.999471 114.223659 
L 89.180033 71.214708 
L 90.360595 117.36103 
L 91.541157 113.817487 
L 92.721719 134.547861 
L 92.721719 142.148496 
L 103.346777 126.445667 
L 108.069025 127.521281 
L 115.152397 138.279948 
L 131.680264 102.713264 
L 134.041388 115.488248 
L 135.22195 71.670567 
L 135.22195 124.626308 
L 139.944198 112.146425 
L 141.12476 120.931836 
L 142.305322 117.143488 
L 143.485884 126.082003 
L 144.666446 123.4967 
L 145.847008 109.680623 
L 147.02757 123.055873 
L 147.02757 149.77137 
L 148.208132 95.991268 
L 148.208132 133.936921 
L 149.388694 94.596875 
L 149.388694 125.467352 
L 150.569256 125.79988 
L 151.749818 120.986312 
L 151.749818 135.111107 
L 152.93038 107.840081 
L 152.93038 126.308944 
L 155.291504 114.701723 
L 156.472066 111.143118 
L 158.83319 96.981402 
L 160.013752 127.543054 
L 161.194314 90.886132 
L 165.916562 71.04352 
L 167.097124 89.973803 
L 168.277686 118.950711 
L 175.361058 97.484975 
L 176.54162 96.058074 
L 176.54162 99.350078 
L 178.902744 116.136619 
L 181.263868 111.859033 
L 182.44443 89.236724 
L 183.624992 77.784779 
L 184.805554 77.934328 
L 185.986116 82.628655 
L 187.166678 53.568 
L 187.166678 96.103671 
L 191.888926 68.776232 
L 206.055669 80.743853 
L 207.236231 72.222951 
L 207.236231 112.253927 
L 208.416793 60.211942 
L 209.597355 76.687414 
L 209.597355 95.867306 
L 210.777917 73.192679 
L 211.958479 65.099475 
L 211.958479 77.897183 
L 223.764099 65.996076 
L 224.944661 65.934101 
L 224.944661 97.067535 
L 226.125223 61.726456 
L 227.305785 75.996286 
L 227.305785 92.452925 
L 228.486347 73.701461 
L 228.486347 122.402708 
L 229.666909 84.260062 
L 229.666909 134.937839 
L 230.847471 113.490851 
L 230.847471 119.736837 
L 232.028033 114.515309 
L 268.625455 116.950405 
L 269.806017 118.202687 
L 269.806017 146.260516 
L 276.889388 110.558055 
L 278.06995 110.234626 
L 279.250512 101.741678 
L 279.250512 112.060814 
L 280.431074 98.644143 
L 281.611636 120.322185 
L 289.87557 131.0292 
L 291.056132 124.339332 
L 293.417256 109.314846 
L 296.958942 111.498 
L 298.139504 107.748696 
L 299.320066 83.61685 
L 299.320066 119.135932 
L 300.500628 107.5775 
L 301.68119 80.147585 
L 301.68119 106.776796 
L 302.861752 95.110858 
L 305.222876 73.613066 
L 307.584 75.244876 
L 311.125686 103.335619 
L 312.306248 59.253735 
L 313.48681 71.32465 
L 320.570182 56.032117 
L 330.014678 85.410265 
L 331.19524 108.135361 
L 332.375802 71.650389 
L 332.375802 88.500081 
L 333.556364 84.042535 
L 333.556364 113.119702 
L 347.723107 86.143567 
L 348.903669 95.992216 
L 359.528727 107.388815 
L 360.709289 78.987813 
L 361.889851 61.176929 
L 361.889851 107.908385 
L 363.070413 100.075332 
L 368.973223 145.658991 
L 370.153785 128.346833 
L 371.334347 95.019118 
L 371.334347 97.713726 
L 371.334347 164.380806 
L 373.695471 140.807856 
L 376.056595 146.861963 
L 377.237157 102.628774 
L 377.237157 113.312401 
L 378.417719 116.06512 
L 378.417719 131.641702 
L 379.598281 116.889823 
L 379.598281 130.284321 
L 380.778843 137.720188 
L 380.778843 137.720188 
" clip-path="url(#pb3bd91a04e)" style="fill: none; stroke: #1f77b4; stroke-width: 1.5; stroke-linecap: square"/>
   </g>
   <g id="line2d_17">
    <path d="M 73.832727 188.353398 
L 75.013289 188.353398 
L 76.193851 185.360812 
L 77.374413 191.944502 
L 78.554975 192.543019 
L 79.735537 190.14895 
L 80.916099 194.338571 
L 82.096661 196.732641 
L 83.277223 199.725227 
L 84.457785 197.331158 
L 85.638347 205.710401 
L 86.818909 210.498539 
L 87.999471 229.651094 
L 89.180033 238.030336 
L 91.541157 263.766582 
L 92.721719 279.328032 
L 95.082843 295.488 
L 96.263405 291.896896 
L 97.443967 293.692448 
L 98.624529 288.904309 
L 99.805091 287.108757 
L 100.985653 285.911723 
L 102.166215 282.919136 
L 103.346777 283.517653 
L 104.527339 274.539893 
L 105.707901 279.328032 
L 106.888463 279.328032 
L 108.069025 278.130997 
L 109.249587 271.547307 
L 110.430149 271.547307 
L 112.791273 269.153238 
L 113.971835 269.751755 
L 115.152397 266.759168 
L 116.332959 261.372512 
L 117.513521 261.97103 
L 118.694083 258.978443 
L 119.874645 267.357686 
L 121.055207 267.357686 
L 122.235769 264.963616 
L 123.416331 264.365099 
L 124.596893 261.97103 
L 125.777455 263.168064 
L 126.958017 254.190304 
L 128.138579 255.985856 
L 129.31914 257.182891 
L 130.499702 261.372512 
L 131.680264 261.97103 
L 132.860826 254.788822 
L 134.041388 254.190304 
L 135.22195 252.99327 
L 136.402512 260.773995 
L 137.583074 257.182891 
L 138.763636 252.99327 
L 139.944198 255.387339 
L 141.12476 260.175478 
L 142.305322 263.766582 
L 143.485884 260.175478 
L 144.666446 270.350272 
L 145.847008 264.963616 
L 147.02757 270.350272 
L 148.208132 266.160651 
L 149.388694 255.985856 
L 150.569256 263.168064 
L 151.749818 268.55472 
L 152.93038 260.773995 
L 154.110942 259.57696 
L 155.291504 262.569547 
L 156.472066 253.591787 
L 157.652628 247.606614 
L 158.83319 247.008096 
L 160.013752 248.205131 
L 161.194314 236.234784 
L 162.374876 231.446646 
L 163.555438 238.030336 
L 164.736 239.227371 
L 165.916562 237.431819 
L 167.097124 237.431819 
L 168.277686 228.454059 
L 169.458248 223.665921 
L 170.63881 222.468886 
L 171.819372 224.264438 
L 172.999934 223.665921 
L 174.180496 231.446646 
L 176.54162 245.212544 
L 177.722182 241.022923 
L 178.902744 239.227371 
L 180.083306 238.030336 
L 181.263868 236.234784 
L 182.44443 233.242198 
L 183.624992 228.454059 
L 184.805554 224.862955 
L 185.986116 220.673334 
L 187.166678 219.476299 
L 188.34724 224.264438 
L 189.527802 228.454059 
L 190.708364 221.271851 
L 191.888926 223.067403 
L 193.069488 229.651094 
L 194.25005 226.05999 
L 195.430612 227.257025 
L 196.611174 229.651094 
L 197.791736 225.461473 
L 198.972298 234.439232 
L 200.15286 236.833302 
L 201.333421 241.022923 
L 202.513983 241.62144 
L 203.694545 236.833302 
L 204.875107 235.636267 
L 206.055669 236.234784 
L 207.236231 230.249611 
L 208.416793 223.067403 
L 209.597355 217.08223 
L 210.777917 209.301505 
L 211.958479 206.907435 
L 213.139041 200.922262 
L 214.319603 192.543019 
L 215.500165 190.747467 
L 216.680727 190.14895 
L 219.041851 180.572673 
L 220.222413 190.747467 
L 221.402975 182.966742 
L 222.583537 184.163777 
L 223.764099 196.732641 
L 224.944661 217.08223 
L 226.125223 228.454059 
L 227.305785 214.688161 
L 228.486347 223.067403 
L 229.666909 246.409579 
L 230.847471 258.978443 
L 232.028033 276.335445 
L 233.208595 285.911723 
L 234.389157 283.517653 
L 235.569719 282.320619 
L 236.750281 287.707275 
L 237.930843 286.51024 
L 239.111405 293.093931 
L 240.291967 282.919136 
L 241.472529 279.328032 
L 242.653091 281.123584 
L 243.833653 283.517653 
L 245.014215 278.729515 
L 246.194777 280.525067 
L 247.375339 283.517653 
L 248.555901 276.933963 
L 249.736463 279.328032 
L 250.917025 279.328032 
L 252.097587 273.941376 
L 254.458711 271.547307 
L 255.639273 273.941376 
L 256.819835 264.963616 
L 258.000397 281.123584 
L 259.180959 278.729515 
L 260.361521 275.736928 
L 261.542083 273.941376 
L 262.722645 275.736928 
L 263.903207 273.342859 
L 265.083769 273.941376 
L 266.264331 276.335445 
L 267.444893 275.138411 
L 268.625455 275.138411 
L 269.806017 263.168064 
L 270.986579 258.978443 
L 272.16714 263.168064 
L 273.347702 264.365099 
L 274.528264 264.365099 
L 275.708826 266.160651 
L 276.889388 261.97103 
L 278.06995 257.182891 
L 279.250512 251.197718 
L 280.431074 253.591787 
L 282.792198 261.97103 
L 283.97276 260.773995 
L 285.153322 263.168064 
L 286.333884 257.781408 
L 287.514446 261.97103 
L 288.695008 263.168064 
L 289.87557 256.584374 
L 291.056132 258.379926 
L 292.236694 269.751755 
L 293.417256 262.569547 
L 294.597818 258.379926 
L 295.77838 261.97103 
L 296.958942 257.781408 
L 298.139504 251.197718 
L 299.320066 242.219958 
L 300.500628 220.074817 
L 301.68119 229.651094 
L 302.861752 224.862955 
L 304.042314 229.052577 
L 305.222876 223.665921 
L 306.403438 218.877782 
L 307.584 223.665921 
L 308.764562 208.702987 
L 309.945124 206.308918 
L 311.125686 206.308918 
L 312.306248 212.294091 
L 313.48681 211.097057 
L 314.667372 221.271851 
L 315.847934 223.665921 
L 317.028496 220.673334 
L 318.209058 221.271851 
L 321.750744 208.702987 
L 322.931306 210.498539 
L 324.111868 211.097057 
L 325.29243 213.491126 
L 326.472992 208.10447 
L 327.653554 206.907435 
L 328.834116 206.308918 
L 330.014678 203.316331 
L 332.375802 230.848129 
L 333.556364 233.242198 
L 334.736926 248.205131 
L 335.917488 257.182891 
L 337.09805 260.773995 
L 338.278612 257.781408 
L 339.459174 251.197718 
L 340.639736 251.796235 
L 341.820298 245.811062 
L 343.00086 245.811062 
L 344.181421 235.636267 
L 345.361983 252.394752 
L 346.542545 247.606614 
L 347.723107 244.614027 
L 348.903669 232.64368 
L 351.264793 217.08223 
L 352.445355 214.089643 
L 353.625917 202.717814 
L 354.806479 205.111883 
L 355.987041 200.922262 
L 357.167603 200.922262 
L 358.348165 206.907435 
L 359.528727 215.286678 
L 360.709289 221.271851 
L 361.889851 237.431819 
L 363.070413 244.614027 
L 364.250975 257.182891 
L 365.431537 252.99327 
L 366.612099 257.182891 
L 367.792661 255.985856 
L 368.973223 264.365099 
L 370.153785 269.153238 
L 371.334347 272.145824 
L 372.514909 265.562134 
L 373.695471 268.55472 
L 374.876033 256.584374 
L 376.056595 260.175478 
L 377.237157 267.357686 
L 378.417719 264.963616 
L 379.598281 265.562134 
L 380.778843 261.97103 
L 381.959405 265.562134 
L 383.139967 261.372512 
L 384.320529 261.97103 
L 385.501091 259.57696 
L 386.681653 260.773995 
L 387.862215 264.365099 
L 389.042777 264.365099 
L 390.223339 254.190304 
L 391.403901 265.562134 
L 393.765025 264.365099 
L 394.945587 260.773995 
L 396.126149 260.773995 
L 397.306711 257.182891 
L 398.487273 257.182891 
L 398.487273 257.182891 
" clip-path="url(#pb3bd91a04e)" style="fill: none; stroke: #ff7f0e; stroke-width: 1.5; stroke-linecap: square"/>
   </g>
   <g id="patch_3">
    <path d="M 57.6 307.584 
L 57.6 41.472 
" style="fill: none; stroke: #000000; stroke-width: 0.8; stroke-linejoin: miter; stroke-linecap: square"/>
   </g>
   <g id="patch_4">
    <path d="M 414.72 307.584 
L 414.72 41.472 
" style="fill: none; stroke: #000000; stroke-width: 0.8; stroke-linejoin: miter; stroke-linecap: square"/>
   </g>
   <g id="patch_5">
    <path d="M 57.6 307.584 
L 414.72 307.584 
" style="fill: none; stroke: #000000; stroke-width: 0.8; stroke-linejoin: miter; stroke-linecap: square"/>
   </g>
   <g id="patch_6">
    <path d="M 57.6 41.472 
L 414.72 41.472 
" style="fill: none; stroke: #000000; stroke-width: 0.8; stroke-linejoin: miter; stroke-linecap: square"/>
   </g>
  </g>
 </g>
 <defs>
  <clipPath id="pb3bd91a04e">
   <rect x="57.6" y="41.472" width="357.12" height="266.112"/>
  </clipPath>
 </defs>
</svg>
